<?xml version="1.0" encoding="utf-8"?>
<!-- Generator: Adobe Illustrator 21.1.0, SVG Export Plug-In . SVG Version: 6.00 Build 0)  -->
<svg version="1.1" id="Layer_1" xmlns="http://www.w3.org/2000/svg" xmlns:xlink="http://www.w3.org/1999/xlink" x="0px" y="0px"
	 viewBox="0 0 245.3 250.5" style="enable-background:new 0 0 245.3 250.5;" xml:space="preserve">
<style type="text/css">
	.st0{fill:#FFFFFF;}
</style>
<path class="st0" d="M242.9,0c0,0-19.9,0-41.3,0c-33.3,0-59.5,10.2-78.9,26.2C103.3,10.2,77.1,0,43.8,0C22.4,0,2.5,0,2.5,0
	C1.4,0,0,1,0,2.6v91.1c0,1.1,0.7,2.7,2.7,2.7h69.4c1.6,0,2.5,1.3,2.5,2.5c-4.2,146.1-4.4,151.2-4.4,151.2c0,0.3,0,0.4,0.3,0.4
	c1,0,27.4-5.5,52.2-26.2c24.7,20.8,51.1,26.2,52.1,26.2c0.4,0,0.4-0.1,0.4-0.4l-4.5-151.3c0-1.1,1-2.4,2.5-2.4h69.6
	c1.6,0,2.5-1.5,2.5-2.5V2.6C245.3,1,244,0,242.9,0z M120.1,214.2C97.9,199.3,86,168.5,86,128.2c0-40.3,13.5-72.9,35.8-87.9
	c-17.3,20.6-23.6,51.2-23.6,87.9C98.2,164.9,102.8,193.5,120.1,214.2z"/>
</svg>
